<svg width="48" height="46" viewBox="0 0 48 46" fill="none" xmlns="http://www.w3.org/2000/svg">
<path d="M7.5 9.34375C7.5 8.1535 8.508 7.1875 9.75 7.1875H18.75C19.992 7.1875 21 8.1535 21 9.34375V17.9687C21 19.159 19.992 20.125 18.75 20.125H9.75C9.15326 20.125 8.58097 19.8978 8.15901 19.4934C7.73705 19.0891 7.5 18.5406 7.5 17.9687V9.34375ZM7.5 28.0312C7.5 26.841 8.508 25.875 9.75 25.875H18.75C19.992 25.875 21 26.841 21 28.0312V36.6562C21 37.8465 19.992 38.8125 18.75 38.8125H9.75C9.15326 38.8125 8.58097 38.5853 8.15901 38.1809C7.73705 37.7766 7.5 37.2281 7.5 36.6562V28.0312ZM27 9.34375C27 8.1535 28.008 7.1875 29.25 7.1875H38.25C39.492 7.1875 40.5 8.1535 40.5 9.34375V17.9687C40.5 19.159 39.492 20.125 38.25 20.125H29.25C28.6533 20.125 28.081 19.8978 27.659 19.4934C27.2371 19.0891 27 18.5406 27 17.9687V9.34375Z" stroke="black" stroke-width="1.5" stroke-linecap="round" stroke-linejoin="round"/>
<path d="M13.5 12.9375H15V14.375H13.5V12.9375ZM13.5 31.625H15V33.0625H13.5V31.625ZM33 12.9375H34.5V14.375H33V12.9375ZM27 25.875H28.5V27.3125H27V25.875ZM27 37.375H28.5V38.8125H27V37.375ZM39 25.875H40.5V27.3125H39V25.875ZM39 37.375H40.5V38.8125H39V37.375ZM33 31.625H34.5V33.0625H33V31.625Z" stroke="black" stroke-width="1.5" stroke-linecap="round" stroke-linejoin="round"/>
</svg>
